<?xml version="1.0" encoding="utf-8"?>
<!-- Generator: Adobe Illustrator 23.0.1, SVG Export Plug-In . SVG Version: 6.00 Build 0)  -->
<svg version="1.1" id="Layer_1" opacity="0.77" xmlns="http://www.w3.org/2000/svg" xmlns:xlink="http://www.w3.org/1999/xlink"
	 x="0px" y="0px" viewBox="0 0 1000 1000" enable-background="new 0 0 1000 1000" xml:space="preserve">
<title>Abstract background</title>
<desc>author: David Zydd</desc>
<g>
	<defs>
		<rect id="SVGID_1_" width="1000" height="1000"/>
	</defs>
	<use xlink:href="#SVGID_1_"  overflow="visible" fill="#FFFFFF"/>
	<clipPath id="SVGID_2_">
		<use xlink:href="#SVGID_1_"  overflow="visible"/>
	</clipPath>
	<g clip-path="url(#SVGID_2_)">
		<g id="all">
			<path fill="#6D7EEF" stroke="#000000" stroke-width="0.25" d="M0,0h83.334v83.334H0V0z"/>
			<path fill="#7782F7" stroke="#000000" stroke-width="0.25" d="M83.334,0h83.333v83.334H83.334V0z"/>
			<path fill="#5668D4" stroke="#000000" stroke-width="0.25" d="M166.667,0H250v83.334h-83.333V0z"/>
			<path fill="#5E67DE" stroke="#000000" stroke-width="0.25" d="M250,0h83.333v83.334H250V0z"/>
			<path fill="#6266E0" stroke="#000000" stroke-width="0.25" d="M333.333,0h83.334v83.334h-83.334V0z"/>
			<path fill="#7775F2" stroke="#000000" stroke-width="0.25" d="M416.667,0H500v83.334h-83.333V0z"/>
			<path fill="#7979F1" stroke="#000000" stroke-width="0.25" d="M500,0h83.333v83.334H500V0z"/>
			<path fill="#6052D3" stroke="#000000" stroke-width="0.25" d="M583.333,0h83.334v83.334h-83.334V0z"/>
			<path fill="#6D5AE0" stroke="#000000" stroke-width="0.25" d="M666.667,0H750v83.334h-83.333V0z"/>
			<path fill="#7D6CEE" stroke="#000000" stroke-width="0.25" d="M750,0h83.333v83.334H750V0z"/>
			<path fill="#5D47D1" stroke="#000000" stroke-width="0.25" d="M833.333,0h83.334v83.334h-83.334V0z"/>
			<path fill="#8465F4" stroke="#000000" stroke-width="0.25" d="M916.667,0H1000v83.334h-83.333V0z"/>
			<path fill="#6F7BE7" stroke="#000000" stroke-width="0.25" d="M0,83.334h83.334v83.333H0V83.334z"/>
			<path fill="#5E6FDA" stroke="#000000" stroke-width="0.25" d="M83.334,83.334h83.333v83.333H83.334V83.334z"/>
			<path fill="#6271E0" stroke="#000000" stroke-width="0.25" d="M166.667,83.334H250v83.333h-83.333V83.334z"/>
			<path fill="#5A61D9" stroke="#000000" stroke-width="0.25" d="M250,83.334h83.333v83.333H250V83.334z"/>
			<path fill="#887EFB" stroke="#000000" stroke-width="0.25" d="M333.333,83.334h83.334v83.333h-83.334V83.334z"/>
			<path fill="#706EE9" stroke="#000000" stroke-width="0.25" d="M416.667,83.334H500v83.333h-83.333V83.334z"/>
			<path fill="#736DEF" stroke="#000000" stroke-width="0.25" d="M500,83.334h83.333v83.333H500V83.334z"/>
			<path fill="#6450D7" stroke="#000000" stroke-width="0.25" d="M583.333,83.334h83.334v83.333h-83.334V83.334z"/>
			<path fill="#6243CD" stroke="#000000" stroke-width="0.25" d="M666.667,83.334H750v83.333h-83.333V83.334z"/>
			<path fill="#7E60F0" stroke="#000000" stroke-width="0.25" d="M750,83.334h83.333v83.333H750V83.334z"/>
			<path fill="#795CE7" stroke="#000000" stroke-width="0.25" d="M833.333,83.334h83.334v83.333h-83.334V83.334z"/>
			<path fill="#6842DA" stroke="#000000" stroke-width="0.25" d="M916.667,83.334H1000v83.333h-83.333V83.334z"/>
			<path fill="#7888FA" stroke="#000000" stroke-width="0.25" d="M0,166.667h83.334V250H0V166.667z"/>
			<path fill="#7175E4" stroke="#000000" stroke-width="0.25" d="M83.334,166.667h83.333V250H83.334V166.667z"/>
			<path fill="#757BF1" stroke="#000000" stroke-width="0.25" d="M166.667,166.667H250V250h-83.333V166.667z"/>
			<path fill="#7C7FF2" stroke="#000000" stroke-width="0.25" d="M250,166.667h83.333V250H250V166.667z"/>
			<path fill="#6052D2" stroke="#000000" stroke-width="0.25" d="M333.333,166.667h83.334V250h-83.334V166.667z"/>
			<path fill="#624FD5" stroke="#000000" stroke-width="0.25" d="M416.667,166.667H500V250h-83.333V166.667z"/>
			<path fill="#7E6CF1" stroke="#000000" stroke-width="0.25" d="M500,166.667h83.333V250H500V166.667z"/>
			<path fill="#634CCF" stroke="#000000" stroke-width="0.25" d="M583.333,166.667h83.334V250h-83.334V166.667z"/>
			<path fill="#875EF4" stroke="#000000" stroke-width="0.25" d="M666.667,166.667H750V250h-83.333V166.667z"/>
			<path fill="#785EE9" stroke="#000000" stroke-width="0.25" d="M750,166.667h83.333V250H750V166.667z"/>
			<path fill="#7F52EF" stroke="#000000" stroke-width="0.25" d="M833.333,166.667h83.334V250h-83.334V166.667z"/>
			<path fill="#7A44E8" stroke="#000000" stroke-width="0.25" d="M916.667,166.667H1000V250h-83.333V166.667z"/>
			<path fill="#6C74E7" stroke="#000000" stroke-width="0.25" d="M0,250h83.334v83.334H0V250z"/>
			<path fill="#7578F2" stroke="#000000" stroke-width="0.25" d="M83.334,250h83.333v83.334H83.334V250z"/>
			<path fill="#6868DF" stroke="#000000" stroke-width="0.25" d="M166.667,250H250v83.334h-83.333V250z"/>
			<path fill="#6B5DE0" stroke="#000000" stroke-width="0.25" d="M250,250h83.333v83.334H250V250z"/>
			<path fill="#6C5CE6" stroke="#000000" stroke-width="0.25" d="M333.333,250h83.334v83.334h-83.334V250z"/>
			<path fill="#6D58E1" stroke="#000000" stroke-width="0.25" d="M416.667,250H500v83.334h-83.333V250z"/>
			<path fill="#7551E4" stroke="#000000" stroke-width="0.25" d="M500,250h83.333v83.334H500V250z"/>
			<path fill="#5A3DCC" stroke="#000000" stroke-width="0.25" d="M583.333,250h83.334v83.334h-83.334V250z"/>
			<path fill="#6139CE" stroke="#000000" stroke-width="0.25" d="M666.667,250H750v83.334h-83.333V250z"/>
			<path fill="#7845E0" stroke="#000000" stroke-width="0.25" d="M750,250h83.333v83.334H750V250z"/>
			<path fill="#632ED3" stroke="#000000" stroke-width="0.25" d="M833.333,250h83.334v83.334h-83.334V250z"/>
			<path fill="#8447E2" stroke="#000000" stroke-width="0.25" d="M916.667,250H1000v83.334h-83.333V250z"/>
			<path fill="#6B6DE4" stroke="#000000" stroke-width="0.25" d="M0,333.334h83.334v83.333H0V333.334z"/>
			<path fill="#7A71E9" stroke="#000000" stroke-width="0.25" d="M83.334,333.334h83.333v83.333H83.334V333.334z"/>
			<path fill="#6F64E7" stroke="#000000" stroke-width="0.25" d="M166.667,333.334H250v83.333h-83.333V333.334z"/>
			<path fill="#7C66F0" stroke="#000000" stroke-width="0.25" d="M250,333.334h83.333v83.333H250V333.334z"/>
			<path fill="#6D4DD3" stroke="#000000" stroke-width="0.25" d="M333.333,333.334h83.334v83.333h-83.334V333.334z"/>
			<path fill="#7B61F1" stroke="#000000" stroke-width="0.25" d="M416.667,333.334H500v83.333h-83.333V333.334z"/>
			<path fill="#6950DF" stroke="#000000" stroke-width="0.25" d="M500,333.334h83.333v83.333H500V333.334z"/>
			<path fill="#7E56E6" stroke="#000000" stroke-width="0.25" d="M583.333,333.334h83.334v83.333h-83.334V333.334z"/>
			<path fill="#794AE2" stroke="#000000" stroke-width="0.25" d="M666.667,333.334H750v83.333h-83.333V333.334z"/>
			<path fill="#662CC6" stroke="#000000" stroke-width="0.25" d="M750,333.334h83.333v83.333H750V333.334z"/>
			<path fill="#834EE8" stroke="#000000" stroke-width="0.25" d="M833.333,333.334h83.334v83.333h-83.334V333.334z"/>
			<path fill="#7C3DDF" stroke="#000000" stroke-width="0.25" d="M916.667,333.334H1000v83.333h-83.333V333.334z"/>
			<path fill="#7977F4" stroke="#000000" stroke-width="0.25" d="M0,416.667h83.334V500H0V416.667z"/>
			<path fill="#6F5DE4" stroke="#000000" stroke-width="0.25" d="M83.334,416.667h83.333V500H83.334V416.667z"/>
			<path fill="#5F48CD" stroke="#000000" stroke-width="0.25" d="M166.667,416.667H250V500h-83.333V416.667z"/>
			<path fill="#876FF7" stroke="#000000" stroke-width="0.25" d="M250,416.667h83.333V500H250V416.667z"/>
			<path fill="#6A4DDE" stroke="#000000" stroke-width="0.25" d="M333.333,416.667h83.334V500h-83.334V416.667z"/>
			<path fill="#8261F4" stroke="#000000" stroke-width="0.25" d="M416.667,416.667H500V500h-83.333V416.667z"/>
			<path fill="#7B49E7" stroke="#000000" stroke-width="0.25" d="M500,416.667h83.333V500H500V416.667z"/>
			<path fill="#6931CD" stroke="#000000" stroke-width="0.25" d="M583.333,416.667h83.334V500h-83.334V416.667z"/>
			<path fill="#7A42DB" stroke="#000000" stroke-width="0.25" d="M666.667,416.667H750V500h-83.333V416.667z"/>
			<path fill="#743BDE" stroke="#000000" stroke-width="0.25" d="M750,416.667h83.333V500H750V416.667z"/>
			<path fill="#843EEC" stroke="#000000" stroke-width="0.25" d="M833.333,416.667h83.334V500h-83.334V416.667z"/>
			<path fill="#7929DB" stroke="#000000" stroke-width="0.25" d="M916.667,416.667H1000V500h-83.333V416.667z"/>
			<path fill="#6959DE" stroke="#000000" stroke-width="0.25" d="M0,500h83.334v83.333H0V500z"/>
			<path fill="#694BD2" stroke="#000000" stroke-width="0.25" d="M83.334,500h83.333v83.333H83.334V500z"/>
			<path fill="#8163EB" stroke="#000000" stroke-width="0.25" d="M166.667,500H250v83.333h-83.333V500z"/>
			<path fill="#6338C9" stroke="#000000" stroke-width="0.25" d="M250,500h83.333v83.333H250V500z"/>
			<path fill="#865DEE" stroke="#000000" stroke-width="0.25" d="M333.333,500h83.334v83.333h-83.334V500z"/>
			<path fill="#8453ED" stroke="#000000" stroke-width="0.25" d="M416.667,500H500v83.333h-83.333V500z"/>
			<path fill="#6C32CC" stroke="#000000" stroke-width="0.25" d="M500,500h83.333v83.333H500V500z"/>
			<path fill="#753FE0" stroke="#000000" stroke-width="0.25" d="M583.333,500h83.334v83.333h-83.334V500z"/>
			<path fill="#8449E6" stroke="#000000" stroke-width="0.25" d="M666.667,500H750v83.333h-83.333V500z"/>
			<path fill="#7C35E4" stroke="#000000" stroke-width="0.25" d="M750,500h83.333v83.333H750V500z"/>
			<path fill="#6F1FCD" stroke="#000000" stroke-width="0.25" d="M833.333,500h83.334v83.333h-83.334V500z"/>
			<path fill="#6316C3" stroke="#000000" stroke-width="0.25" d="M916.667,500H1000v83.333h-83.333V500z"/>
			<path fill="#6C58E4" stroke="#000000" stroke-width="0.25" d="M0,583.333h83.334v83.334H0V583.333z"/>
			<path fill="#7761EE" stroke="#000000" stroke-width="0.25" d="M83.334,583.333h83.333v83.334H83.334V583.333z"/>
			<path fill="#593CCA" stroke="#000000" stroke-width="0.25" d="M166.667,583.333H250v83.334h-83.333V583.333z"/>
			<path fill="#6036C8" stroke="#000000" stroke-width="0.25" d="M250,583.333h83.333v83.334H250V583.333z"/>
			<path fill="#7648E5" stroke="#000000" stroke-width="0.25" d="M333.333,583.333h83.334v83.334h-83.334V583.333z"/>
			<path fill="#7E47EA" stroke="#000000" stroke-width="0.25" d="M416.667,583.333H500v83.334h-83.333V583.333z"/>
			<path fill="#682BD1" stroke="#000000" stroke-width="0.25" d="M500,583.333h83.333v83.334H500V583.333z"/>
			<path fill="#7A39E8" stroke="#000000" stroke-width="0.25" d="M583.333,583.333h83.334v83.334h-83.334V583.333z"/>
			<path fill="#6E2AD9" stroke="#000000" stroke-width="0.25" d="M666.667,583.333H750v83.334h-83.333V583.333z"/>
			<path fill="#7E3ADE" stroke="#000000" stroke-width="0.25" d="M750,583.333h83.333v83.334H750V583.333z"/>
			<path fill="#600FC0" stroke="#000000" stroke-width="0.25" d="M833.333,583.333h83.334v83.334h-83.334V583.333z"/>
			<path fill="#7B1FD7" stroke="#000000" stroke-width="0.25" d="M916.667,583.333H1000v83.334h-83.333V583.333z"/>
			<path fill="#8266F2" stroke="#000000" stroke-width="0.25" d="M0,666.667h83.334V750H0V666.667z"/>
			<path fill="#6439CB" stroke="#000000" stroke-width="0.25" d="M83.334,666.667h83.333V750H83.334V666.667z"/>
			<path fill="#774CDF" stroke="#000000" stroke-width="0.25" d="M166.667,666.667H250V750h-83.333V666.667z"/>
			<path fill="#8046E5" stroke="#000000" stroke-width="0.25" d="M250,666.667h83.333V750H250V666.667z"/>
			<path fill="#854CEC" stroke="#000000" stroke-width="0.25" d="M333.333,666.667h83.334V750h-83.334V666.667z"/>
			<path fill="#7031D1" stroke="#000000" stroke-width="0.25" d="M416.667,666.667H500V750h-83.333V666.667z"/>
			<path fill="#7333D7" stroke="#000000" stroke-width="0.25" d="M500,666.667h83.333V750H500V666.667z"/>
			<path fill="#853DE7" stroke="#000000" stroke-width="0.25" d="M583.333,666.667h83.334V750h-83.334V666.667z"/>
			<path fill="#7528D2" stroke="#000000" stroke-width="0.25" d="M666.667,666.667H750V750h-83.333V666.667z"/>
			<path fill="#832ADB" stroke="#000000" stroke-width="0.25" d="M750,666.667h83.333V750H750V666.667z"/>
			<path fill="#660DC4" stroke="#000000" stroke-width="0.25" d="M833.333,666.667h83.334V750h-83.334V666.667z"/>
			<path fill="#6501B7" stroke="#000000" stroke-width="0.25" d="M916.667,666.667H1000V750h-83.333V666.667z"/>
			<path fill="#774EE6" stroke="#000000" stroke-width="0.25" d="M0,750h83.334v83.333H0V750z"/>
			<path fill="#6739D3" stroke="#000000" stroke-width="0.25" d="M83.334,750h83.333v83.333H83.334V750z"/>
			<path fill="#6B38D4" stroke="#000000" stroke-width="0.25" d="M166.667,750H250v83.333h-83.333V750z"/>
			<path fill="#7139D3" stroke="#000000" stroke-width="0.25" d="M250,750h83.333v83.333H250V750z"/>
			<path fill="#672DD0" stroke="#000000" stroke-width="0.25" d="M333.333,750h83.334v83.333h-83.334V750z"/>
			<path fill="#8842E4" stroke="#000000" stroke-width="0.25" d="M416.667,750H500v83.333h-83.333V750z"/>
			<path fill="#6B20C6" stroke="#000000" stroke-width="0.25" d="M500,750h83.333v83.333H500V750z"/>
			<path fill="#7D2BDE" stroke="#000000" stroke-width="0.25" d="M583.333,750h83.334v83.333h-83.334V750z"/>
			<path fill="#7926DA" stroke="#000000" stroke-width="0.25" d="M666.667,750H750v83.333h-83.333V750z"/>
			<path fill="#791ADA" stroke="#000000" stroke-width="0.25" d="M750,750h83.333v83.333H750V750z"/>
			<path fill="#7410D6" stroke="#000000" stroke-width="0.25" d="M833.333,750h83.334v83.333h-83.334V750z"/>
			<path fill="#6F01C3" stroke="#000000" stroke-width="0.25" d="M916.667,750H1000v83.333h-83.333V750z"/>
			<path fill="#7445DD" stroke="#000000" stroke-width="0.25" d="M0,833.333h83.334v83.334H0V833.333z"/>
			<path fill="#6E3BDB" stroke="#000000" stroke-width="0.25" d="M83.334,833.333h83.333v83.334H83.334V833.333z"/>
			<path fill="#723CE1" stroke="#000000" stroke-width="0.25" d="M166.667,833.333H250v83.334h-83.333V833.333z"/>
			<path fill="#843FE8" stroke="#000000" stroke-width="0.25" d="M250,833.333h83.333v83.334H250V833.333z"/>
			<path fill="#6A1AC5" stroke="#000000" stroke-width="0.25" d="M333.333,833.333h83.334v83.334h-83.334V833.333z"/>
			<path fill="#6C21CD" stroke="#000000" stroke-width="0.25" d="M416.667,833.333H500v83.334h-83.333V833.333z"/>
			<path fill="#6A13C5" stroke="#000000" stroke-width="0.25" d="M500,833.333h83.333v83.334H500V833.333z"/>
			<path fill="#781AD5" stroke="#000000" stroke-width="0.25" d="M583.333,833.333h83.334v83.334h-83.334V833.333z"/>
			<path fill="#730DC9" stroke="#000000" stroke-width="0.25" d="M666.667,833.333H750v83.334h-83.333V833.333z"/>
			<path fill="#6608C3" stroke="#000000" stroke-width="0.25" d="M750,833.333h83.333v83.334H750V833.333z"/>
			<path fill="#6C08C7" stroke="#000000" stroke-width="0.25" d="M833.333,833.333h83.334v83.334h-83.334V833.333z"/>
			<path fill="#6700C7" stroke="#000000" stroke-width="0.25" d="M916.667,833.333H1000v83.334h-83.333V833.333z"/>
			<path fill="#6523C8" stroke="#000000" stroke-width="0.25" d="M0,916.667h83.334V1000H0V916.667z"/>
			<path fill="#6E30D1" stroke="#000000" stroke-width="0.25" d="M83.334,916.667h83.333V1000H83.334V916.667z"/>
			<path fill="#621ECC" stroke="#000000" stroke-width="0.25" d="M166.667,916.667H250V1000h-83.333V916.667z"/>
			<path fill="#661CC9" stroke="#000000" stroke-width="0.25" d="M250,916.667h83.333V1000H250V916.667z"/>
			<path fill="#7325CC" stroke="#000000" stroke-width="0.25" d="M333.333,916.667h83.334V1000h-83.334V916.667z"/>
			<path fill="#731ECC" stroke="#000000" stroke-width="0.25" d="M416.667,916.667H500V1000h-83.333V916.667z"/>
			<path fill="#7013D4" stroke="#000000" stroke-width="0.25" d="M500,916.667h83.333V1000H500V916.667z"/>
			<path fill="#6300C2" stroke="#000000" stroke-width="0.25" d="M583.333,916.667h83.334V1000h-83.334V916.667z"/>
			<path fill="#6B01CB" stroke="#000000" stroke-width="0.25" d="M666.667,916.667H750V1000h-83.333V916.667z"/>
			<path fill="#8010DA" stroke="#000000" stroke-width="0.25" d="M750,916.667h83.333V1000H750V916.667z"/>
			<path fill="#7708CA" stroke="#000000" stroke-width="0.25" d="M833.333,916.667h83.334V1000h-83.334V916.667z"/>
			<path fill="#6400C2" stroke="#000000" stroke-width="0.25" d="M916.667,916.667H1000V1000h-83.333V916.667z"/>
		</g>
	</g>
</g>
</svg>
